# xmcd CD database file
#
# Track frame offsets:
#	150
#	25385
#	42472
#	66852
#	96097
#	115215
#	145482
#	170485
#	199892
#	230392
#
# Disc length: 3371 seconds
#
# Revision: 0
# Processed by: cddbd v1.5.1PL2 Copyright (c) Steve Scherf et al.
# Submitted via: CDex 1.50
#
DISCID=900d290a
DTITLE=Tania Maria - Intimidade
DYEAR=2005
DGENRE=Salsa
TTITLE0=Intimidade
TTITLE1=Chorinho Brasileiro
TTITLE2=E tao gostoso seu moco
TTITLE3=Canto
TTITLE4=Besame mucho
TTITLE5=Ayé
TTITLE6=Agua de beber
TTITLE7=Evocaçao
TTITLE8=Esta no ar
TTITLE9=Batebola
EXTD=YEAR: 2005
EXTT0=
EXTT1=
EXTT2=
EXTT3=
EXTT4=
EXTT5=
EXTT6=
EXTT7=
EXTT8=
EXTT9=
PLAYORDER=
